<svg id="Leica" xmlns="http://www.w3.org/2000/svg" width="84.094" height="37.766" viewBox="0 0 84.094 37.766">
  <path id="Path_30" data-name="Path 30" d="M1162.323,2243.583l.4,1.65c-.565.177-1.112.353-1.661.521q-4.413,1.355-8.931,2.3c-2.259.476-4.529.888-6.815,1.207-1.8.25-3.608.5-5.417.708-1.714.194-3.434.346-5.153.486a112.415,112.415,0,0,1-11.412.379c-1.754-.035-3.509-.141-5.26-.276a78.724,78.724,0,0,1-11.392-1.769,87.6,87.6,0,0,1-13.179-4.108c-.087-.035-.162-.076-.259.016a11.263,11.263,0,0,1-5.54,2.846,9.876,9.876,0,0,1-6.923-1.054,4.467,4.467,0,0,1-1.575-1.354,2.754,2.754,0,0,1,.665-3.988,6.709,6.709,0,0,1,2.743-1.13,10.442,10.442,0,0,1,3.144-.049,34.228,34.228,0,0,1,4.01.707.207.207,0,0,0,.28-.12,22.066,22.066,0,0,0,1.86-4.717c.5-1.782.857-3.6,1.229-5.412.021-.1.037-.2.06-.321a18.353,18.353,0,0,1-4.749-1.032l.617-1.669c.543.145,1.067.3,1.6.422a15.163,15.163,0,0,0,2.807.342c.15.007.145-.094.169-.179.279-1,.545-2.006.835-3a28.373,28.373,0,0,1,2.019-5.294,13.324,13.324,0,0,1,3.345-4.3,9.81,9.81,0,0,1,6.452-2.3,4.9,4.9,0,0,1,4.786,3.984,8.123,8.123,0,0,1-.34,4.108,11.325,11.325,0,0,1-3.387,5.025,15.35,15.35,0,0,1-7.088,3.6.631.631,0,0,0-.561.552c-.474,1.832-.951,3.663-1.474,5.481a21.916,21.916,0,0,1-2.3,5.366c-.206.338-.425.669-.65,1.021l1.058.3c1.8.515,3.6,1.048,5.405,1.542,1.972.538,3.98.918,5.994,1.256q2.578.432,5.169.783c1.263.172,2.531.3,3.8.414,1.5.136,3,.274,4.5.343,2.175.1,4.353.19,6.529.2q4.5.01,9-.123c2.29-.067,4.58-.2,6.863-.384,2.217-.176,4.429-.422,6.638-.682a82.2,82.2,0,0,0,9.677-1.662c.759-.182,1.512-.391,2.267-.587Zm-62.012-15.841a.588.588,0,0,0,.11,0,8.875,8.875,0,0,0,1.913-.628,12.049,12.049,0,0,0,4.777-3.954,7.955,7.955,0,0,0,1.666-4.535,4.27,4.27,0,0,0-.338-1.872,1.8,1.8,0,0,0-1.729-1.2,3.09,3.09,0,0,0-2.047.835,6.333,6.333,0,0,0-1.566,2.1,25.692,25.692,0,0,0-1.547,4.426C1101.124,2224.509,1100.728,2226.115,1100.312,2227.742Zm-12.066,15.373c-.31-.106-.584-.2-.858-.3a12.031,12.031,0,0,0-2.7-.593,6.378,6.378,0,0,0-1.724.036,3.026,3.026,0,0,0-1.345.5,1.051,1.051,0,0,0-.4,1.127,1.368,1.368,0,0,0,.825.891,4.439,4.439,0,0,0,2.9.326A6.373,6.373,0,0,0,1088.246,2243.115Z" transform="translate(-1078.628 -2213.088)" fill="#ffb11b"/>
  <path id="Path_31" data-name="Path 31" d="M1124.7,2243.947c-.727.366-1.427.736-2.144,1.074a18.5,18.5,0,0,1-5.168,1.642,11.719,11.719,0,0,1-5.888-.456,6.7,6.7,0,0,1-2.948-1.972,5,5,0,0,1-1.14-3.73,6.415,6.415,0,0,1,2.288-4.361,11.108,11.108,0,0,1,6.716-2.842,8.466,8.466,0,0,1,4.407.78,3.3,3.3,0,0,1,1.578,1.4,2.925,2.925,0,0,1-.13,2.959,4.961,4.961,0,0,1-1.961,1.818,10.534,10.534,0,0,1-4.17,1.291,8.094,8.094,0,0,1-2.494-.139c-.053-.011-.106-.014-.159-.021a2.2,2.2,0,0,0,1.021,2.318,3.756,3.756,0,0,0,1.722.4,12.977,12.977,0,0,0,4.395-.7,26.661,26.661,0,0,0,4.036-1.73.32.32,0,0,0,.133-.19q.96-3.773,1.906-7.547c.047-.188.113-.256.318-.255,1.817.01,3.633.005,5.451.005h.232c-.131.53-.257,1.036-.383,1.541-.563,2.261-1.134,4.52-1.683,6.785a2.6,2.6,0,0,0-.027.892.733.733,0,0,0,.686.659,3.619,3.619,0,0,0,1.782-.27,7.657,7.657,0,0,0,2.177-1.289.34.34,0,0,0,.069-.252,6.853,6.853,0,0,1,.322-2.58,7.575,7.575,0,0,1,2.7-3.72,9.977,9.977,0,0,1,5.4-2.042,6.27,6.27,0,0,1,3.284.552,5.451,5.451,0,0,1,.577.333.179.179,0,0,1,.068.153c-.2.78-.408,1.557-.623,2.365-.067-.076-.117-.131-.168-.187a2.963,2.963,0,0,0-1.549-1,2.428,2.428,0,0,0-2.409.811,5.961,5.961,0,0,0-1.269,2.3,9.742,9.742,0,0,0-.485,2.706,2.092,2.092,0,0,0,2.326,2.28,5.086,5.086,0,0,0,2.82-.981c.631-.437,1.224-.931,1.823-1.414a.507.507,0,0,0,.1-.324,7.262,7.262,0,0,1,.534-2.417,8.684,8.684,0,0,1,4.582-4.58,7.673,7.673,0,0,1,3.746-.655,4.586,4.586,0,0,1,3.1,1.43c.028.031.058.062.089.09.007.007.021.007.044.014.08-.351.164-.7.239-1.049.022-.1.058-.151.174-.151,1.739,0,3.478,0,5.216,0a1.114,1.114,0,0,1,.123.014c-.016.076-.027.145-.044.213q-1.059,4.108-2.12,8.217c-.006.024-.01.047-.015.071a1.058,1.058,0,0,0,1.079,1.436,2.874,2.874,0,0,0,1.518-.385c.228-.12.45-.251.677-.378a.264.264,0,0,1,.028.05c.141.54.281,1.081.423,1.626a.347.347,0,0,1-.057.046c-1.141.552-2.277,1.114-3.425,1.649a5.544,5.544,0,0,1-2.489.508,3.379,3.379,0,0,1-3.022-1.864c-.073-.129-.136-.264-.216-.419l-.208.24a5.576,5.576,0,0,1-2.711,1.864,5.494,5.494,0,0,1-5.8-1.441,5.312,5.312,0,0,1-.927-1.369c-.026-.054-.054-.106-.091-.181-.074.068-.138.129-.2.188a12.1,12.1,0,0,1-4.476,2.728,7.629,7.629,0,0,1-5.727-.31,5.117,5.117,0,0,1-2.31-2.107c-.015-.025-.032-.048-.056-.084l-.328.23a15.346,15.346,0,0,1-4.56,2.274,8.635,8.635,0,0,1-2.381.358,3.9,3.9,0,0,1-3.639-2.2c-.063-.116-.116-.238-.168-.358S1124.745,2244.068,1124.7,2243.947Zm29.266-1.841c.034.235.048.476.1.705a1.664,1.664,0,0,0,1.325,1.3,2.488,2.488,0,0,0,1.656-.405,3.65,3.65,0,0,0,1.486-2.152c.319-1.164.6-2.337.909-3.5a2.026,2.026,0,0,0,.048-1.146,2.106,2.106,0,0,0-2.642-1.222,2.643,2.643,0,0,0-1.341,1.245,11.976,11.976,0,0,0-1.047,2.632A10.76,10.76,0,0,0,1153.964,2242.105Zm-40.254-2.427c.273.038.513.091.754.1a5.511,5.511,0,0,0,2.176-.354,3.759,3.759,0,0,0,1.572-1.063,2.685,2.685,0,0,0,.649-1.884,1.356,1.356,0,0,0-.378-.924,1.564,1.564,0,0,0-1.564-.373,2.976,2.976,0,0,0-1.776,1.219,7.524,7.524,0,0,0-1.076,2.147C1113.942,2238.91,1113.834,2239.281,1113.71,2239.679Z" transform="translate(-1084.724 -2217.365)" fill="#ffb11b"/>
  <path id="Path_32" data-name="Path 32" d="M1136.69,2224.69a4.149,4.149,0,0,1,2.132.53,2.058,2.058,0,0,1,.092,3.517,4.846,4.846,0,0,1-4.105.419,2.214,2.214,0,0,1-1.423-1.406,2.055,2.055,0,0,1,.792-2.312,4.02,4.02,0,0,1,1.839-.683C1136.267,2224.719,1136.519,2224.707,1136.69,2224.69Z" transform="translate(-1090.211 -2215.547)" fill="#ffb11b"/>
</svg>
