<svg xmlns="http://www.w3.org/2000/svg" width="72" height="49.555" viewBox="0 0 72 49.555">
  <g id="credit-card" transform="translate(0 -9.681)">
    <g id="Group_325" data-name="Group 325" transform="translate(0 9.681)">
      <path id="Path_214" data-name="Path 214" d="M19.794,33.564a.475.475,0,0,0-.488.366,3.871,3.871,0,0,0-.121,1.128,3.921,3.921,0,0,0,.121,1.11.5.5,0,0,0,.973,0,4.146,4.146,0,0,0,.115-1.11,4.045,4.045,0,0,0-.115-1.128A.472.472,0,0,0,19.794,33.564Z" transform="translate(3.047 -5.913)" fill="#111"/>
      <path id="Path_215" data-name="Path 215" d="M8.682,41.687l-.152.028a1.022,1.022,0,0,0-.309.091.305.305,0,0,0-.157.285.3.3,0,0,0,.1.248.366.366,0,0,0,.235.074.693.693,0,0,0,.4-.125.539.539,0,0,0,.193-.463v-.249a.868.868,0,0,1-.129.064A.889.889,0,0,1,8.682,41.687Z" transform="translate(1.469 -4.615)" fill="#111"/>
      <path id="Path_216" data-name="Path 216" d="M14.515,40.874a.529.529,0,0,0-.4.147.689.689,0,0,0-.179.4h1.153a.557.557,0,0,0-.179-.4A.588.588,0,0,0,14.515,40.874Z" transform="translate(2.214 -4.722)" fill="#111"/>
      <path id="Path_217" data-name="Path 217" d="M14.195,36.557a.473.473,0,0,0,.483-.387,5.522,5.522,0,0,0,0-2.239.47.47,0,0,0-.483-.366.479.479,0,0,0-.489.366,3.89,3.89,0,0,0-.119,1.128,3.932,3.932,0,0,0,.119,1.111A.483.483,0,0,0,14.195,36.557Z" transform="translate(2.158 -5.912)" fill="#111"/>
      <path id="Path_218" data-name="Path 218" d="M5.793,36.557a.474.474,0,0,0,.483-.387,4.144,4.144,0,0,0,.115-1.111,4.1,4.1,0,0,0-.115-1.128.47.47,0,0,0-.483-.366.478.478,0,0,0-.489.366,3.89,3.89,0,0,0-.119,1.128A3.932,3.932,0,0,0,5.3,36.17.482.482,0,0,0,5.793,36.557Z" transform="translate(0.944 -5.912)" fill="#111"/>
      <path id="Path_219" data-name="Path 219" d="M8.593,33.564a.478.478,0,0,0-.489.366,3.879,3.879,0,0,0-.119,1.128,3.929,3.929,0,0,0,.119,1.11.479.479,0,0,0,.489.384.472.472,0,0,0,.483-.384,4.1,4.1,0,0,0,.115-1.11,4.045,4.045,0,0,0-.115-1.128A.47.47,0,0,0,8.593,33.564Z" transform="translate(1.454 -5.913)" fill="#111"/>
      <path id="Path_220" data-name="Path 220" d="M22.322,41.687l-.152.028a1.012,1.012,0,0,0-.307.091.3.3,0,0,0-.157.285.3.3,0,0,0,.1.248.366.366,0,0,0,.235.074.7.7,0,0,0,.4-.125.539.539,0,0,0,.192-.463v-.249a.815.815,0,0,1-.129.064A.911.911,0,0,1,22.322,41.687Z" transform="translate(3.45 -4.615)" fill="#111"/>
      <path id="Path_221" data-name="Path 221" d="M25.395,36.557a.475.475,0,0,0,.485-.387,4.144,4.144,0,0,0,.115-1.111,4.057,4.057,0,0,0-.115-1.128.471.471,0,0,0-.485-.366.479.479,0,0,0-.489.366,3.932,3.932,0,0,0-.119,1.128,3.976,3.976,0,0,0,.119,1.111A.483.483,0,0,0,25.395,36.557Z" transform="translate(3.937 -5.912)" fill="#111"/>
      <path id="Path_222" data-name="Path 222" d="M11.394,36.557a.476.476,0,0,0,.485-.387,5.522,5.522,0,0,0,0-2.239.472.472,0,0,0-.485-.366.479.479,0,0,0-.489.366,3.89,3.89,0,0,0-.119,1.128A3.932,3.932,0,0,0,10.9,36.17.483.483,0,0,0,11.394,36.557Z" transform="translate(1.964 -5.912)" fill="#111"/>
      <path id="Path_223" data-name="Path 223" d="M28.154,40.874a.529.529,0,0,0-.4.147.7.7,0,0,0-.179.4H28.73a.561.561,0,0,0-.179-.4A.588.588,0,0,0,28.154,40.874Z" transform="translate(4.381 -4.722)" fill="#111"/>
      <path id="Path_224" data-name="Path 224" d="M43.632,42.568h-.226l.045.141A1.092,1.092,0,0,1,43.632,42.568Z" transform="translate(6.908 -4.447)" fill="#111"/>
      <path id="Path_225" data-name="Path 225" d="M22.595,33.564a.478.478,0,0,0-.489.366,3.921,3.921,0,0,0-.119,1.128,3.973,3.973,0,0,0,.119,1.11.479.479,0,0,0,.489.384.473.473,0,0,0,.485-.384,4.154,4.154,0,0,0,.113-1.11,4.1,4.1,0,0,0-.113-1.128A.472.472,0,0,0,22.595,33.564Z" transform="translate(3.492 -5.913)" fill="#111"/>
      <path id="Path_226" data-name="Path 226" d="M27.706,33.93a3.89,3.89,0,0,0-.119,1.128,3.932,3.932,0,0,0,.119,1.111.48.48,0,0,0,.489.387.473.473,0,0,0,.483-.387,5.522,5.522,0,0,0,0-2.239.47.47,0,0,0-.483-.366A.479.479,0,0,0,27.706,33.93Z" transform="translate(4.382 -5.913)" fill="#111"/>
      <path id="Path_227" data-name="Path 227" d="M59.972,42.213a1.059,1.059,0,0,1,.141.028v-.264a4.205,4.205,0,0,1-.4.238Z" transform="translate(9.452 -4.542)" fill="#111"/>
      <path id="Path_228" data-name="Path 228" d="M46.253,52.847a2.494,2.494,0,0,1-.125-.309l-.283-.9L42.912,42.31,41.132,36.9a3.658,3.658,0,0,1-.161-.763L40.548,34.8H35.674a2.7,2.7,0,1,1,0-5.4h6.86a2.694,2.694,0,0,1,2.581,1.891l.323,1.031H69.565V14.349a4.648,4.648,0,0,0-4.614-4.668H4.614A4.647,4.647,0,0,0,0,14.349V49.385a4.646,4.646,0,0,0,4.614,4.667H47.337A2.677,2.677,0,0,1,46.253,52.847Zm-16.11-6.884a.323.323,0,0,0-.322-.175.378.378,0,0,0-.375.224.71.71,0,0,0-.053.286v1.491h-.66V46.3a.835.835,0,0,0-.046-.323.324.324,0,0,0-.324-.182.39.39,0,0,0-.378.182.7.7,0,0,0-.053.308V47.79h-.665v-2.5H27.9v.364a1.037,1.037,0,0,1,.231-.279.912.912,0,0,1,.959-.021.724.724,0,0,1,.217.3.831.831,0,0,1,.32-.325.987.987,0,0,1,.452-.1.873.873,0,0,1,.327.064.74.74,0,0,1,.292.226.71.71,0,0,1,.142.322,2.239,2.239,0,0,1,.023.369l0,1.578h-.672V46.194A.538.538,0,0,0,30.143,45.963Zm-4.2-.152a.7.7,0,0,0-.319-.059.426.426,0,0,0-.334.116.466.466,0,0,0-.093.23h-.633a.952.952,0,0,1,.185-.54,1.077,1.077,0,0,1,.9-.33,1.6,1.6,0,0,1,.734.162.625.625,0,0,1,.321.616v1.149c0,.079,0,.175,0,.289a.386.386,0,0,0,.038.174.23.23,0,0,0,.1.075v.1h-.714a.675.675,0,0,1-.041-.141c-.007-.044-.014-.1-.019-.153a1.391,1.391,0,0,1-.314.252.97.97,0,0,1-.482.12.829.829,0,0,1-.565-.194.692.692,0,0,1-.224-.551.714.714,0,0,1,.36-.669,1.588,1.588,0,0,1,.579-.161l.225-.028a1.153,1.153,0,0,0,.262-.057.2.2,0,0,0,.141-.185A.216.216,0,0,0,25.944,45.811Zm.122-4.92a1.167,1.167,0,0,1-1.106-.553,3.169,3.169,0,0,1-.319-1.572,3.2,3.2,0,0,1,.319-1.576,1.382,1.382,0,0,1,2.213,0,4.048,4.048,0,0,1,0,3.148A1.171,1.171,0,0,1,26.066,40.891Zm1.819-2.125a3.189,3.189,0,0,1,.319-1.575,1.383,1.383,0,0,1,2.214,0,4.062,4.062,0,0,1,0,3.148,1.384,1.384,0,0,1-2.214,0A3.174,3.174,0,0,1,27.885,38.766Zm-3.957,1.573a1.383,1.383,0,0,1-2.213,0,4.048,4.048,0,0,1,0-3.148,1.382,1.382,0,0,1,2.213,0,4.062,4.062,0,0,1,0,3.148Zm.118,4.064v3.385h-.708l-1.381-2.4v2.4H21.3V44.4h.744l1.346,2.361V44.4h.659Zm-7.654,2.845a.657.657,0,0,0,.361.094.554.554,0,0,0,.365-.115.54.54,0,0,0,.136-.172h.67a.827.827,0,0,1-.242.455,1.22,1.22,0,0,1-.943.364,1.358,1.358,0,0,1-.883-.309,1.213,1.213,0,0,1-.383-1,1.348,1.348,0,0,1,.345-1,1.21,1.21,0,0,1,.9-.348,1.415,1.415,0,0,1,.588.119,1.007,1.007,0,0,1,.433.369,1.243,1.243,0,0,1,.2.518,3.044,3.044,0,0,1,.022.5H16.13A.6.6,0,0,0,16.392,47.249Zm-2.05-1.286a.323.323,0,0,0-.322-.175.375.375,0,0,0-.375.224.691.691,0,0,0-.053.286v1.491h-.66V46.3a.813.813,0,0,0-.046-.323.324.324,0,0,0-.324-.182.389.389,0,0,0-.378.182.7.7,0,0,0-.053.308V47.79h-.665v-2.5H12.1v.364a1.059,1.059,0,0,1,.231-.279.912.912,0,0,1,.959-.021.732.732,0,0,1,.215.3.831.831,0,0,1,.32-.325.987.987,0,0,1,.452-.1.879.879,0,0,1,.328.064.748.748,0,0,1,.292.226.723.723,0,0,1,.142.322,2.117,2.117,0,0,1,.023.369l0,1.578h-.673V46.194A.491.491,0,0,0,14.341,45.963Zm-4.2-.152a.7.7,0,0,0-.319-.059.426.426,0,0,0-.334.116.466.466,0,0,0-.093.23H8.768a.952.952,0,0,1,.184-.54,1.08,1.08,0,0,1,.9-.33,1.6,1.6,0,0,1,.734.162.627.627,0,0,1,.321.616v1.149c0,.079,0,.175,0,.289a.371.371,0,0,0,.038.174.222.222,0,0,0,.1.075v.1h-.712a.762.762,0,0,1-.042-.141c-.007-.044-.013-.1-.017-.153a1.4,1.4,0,0,1-.315.252.97.97,0,0,1-.482.12.832.832,0,0,1-.566-.194.692.692,0,0,1-.224-.551.712.712,0,0,1,.36-.669,1.588,1.588,0,0,1,.579-.161l.225-.028a1.153,1.153,0,0,0,.262-.057.2.2,0,0,0,.141-.185A.215.215,0,0,0,10.146,45.811Zm.806-5.472a1.173,1.173,0,0,1-1.106.553,1.167,1.167,0,0,1-1.106-.553,3.169,3.169,0,0,1-.319-1.572,3.2,3.2,0,0,1,.319-1.575,1.168,1.168,0,0,1,1.106-.554,1.169,1.169,0,0,1,1.106.554,4.046,4.046,0,0,1,0,3.147Zm-3.783-13.3V24.623H9.615v2.471H7.174C7.174,27.074,7.168,27.057,7.168,27.038Zm9.542,0c0,.019,0,.036-.006.056h-2.44V24.623h2.447v2.415Zm-2.447,1.328h2.174a3.413,3.413,0,0,1-2.174,1.92Zm-.636-5.016H12.99v3.742h-2.1V20.914H13.3a3.4,3.4,0,0,1,3.249,2.435H13.628Zm-4.013,0H7.327a3.4,3.4,0,0,1,2.288-2.281Zm0,5.016v1.92a3.413,3.413,0,0,1-2.174-1.92Zm1.274,0h2.1V30.44h-2.1Zm2.2,8.27a1.17,1.17,0,0,1,1.107.554,4.062,4.062,0,0,1,0,3.148,1.174,1.174,0,0,1-1.107.553,1.167,1.167,0,0,1-1.106-.553,4.048,4.048,0,0,1,0-3.148A1.167,1.167,0,0,1,13.09,36.636Zm-6.488,0a1.169,1.169,0,0,1,1.106.554,4.062,4.062,0,0,1,0,3.148,1.173,1.173,0,0,1-1.106.553,1.169,1.169,0,0,1-1.107-.553,4.048,4.048,0,0,1,0-3.148A1.169,1.169,0,0,1,6.6,36.636ZM5.5,44.4h.744l1.347,2.361V44.4h.66v3.385H7.537l-1.381-2.4v2.4H5.5V44.4Zm9.413-5.637a3.2,3.2,0,0,1,.319-1.575,1.168,1.168,0,0,1,1.106-.554,1.166,1.166,0,0,1,1.105.554,4.062,4.062,0,0,1,0,3.148,1.172,1.172,0,0,1-1.105.553,1.167,1.167,0,0,1-1.106-.553A3.174,3.174,0,0,1,14.91,38.766Zm17.282,8.483a.661.661,0,0,0,.363.094.55.55,0,0,0,.364-.115.557.557,0,0,0,.136-.172h.67a.819.819,0,0,1-.242.455,1.222,1.222,0,0,1-.943.364,1.361,1.361,0,0,1-.884-.309,1.213,1.213,0,0,1-.382-1,1.348,1.348,0,0,1,.345-1,1.212,1.212,0,0,1,.9-.348,1.424,1.424,0,0,1,.59.119,1.014,1.014,0,0,1,.433.369,1.243,1.243,0,0,1,.2.518,3.044,3.044,0,0,1,.022.5H31.931A.593.593,0,0,0,32.192,47.249Zm1.469-10.058a4.048,4.048,0,0,1,0,3.148,1.383,1.383,0,0,1-2.213,0,4.048,4.048,0,0,1,0-3.148,1.382,1.382,0,0,1,2.213,0Zm22.324-9.355a6.185,6.185,0,0,1-2.674-.626,6.4,6.4,0,1,1-.4-10.976,6.165,6.165,0,0,1,3.078-.844,6.223,6.223,0,1,1,0,12.446Z" transform="translate(0 -9.681)" fill="#111"/>
      <path id="Path_229" data-name="Path 229" d="M44.988,20.61H43.756a6.187,6.187,0,0,1,.083-.83h4.724a5.549,5.549,0,0,0-.29-.987H44.086a6.343,6.343,0,0,1,.351-.853h3.4a5.73,5.73,0,0,0-.751-.988H45.053a6.447,6.447,0,0,1,.785-.861,5.3,5.3,0,1,0,.345,9.66,6.675,6.675,0,0,1-.648-.563h.984a5.578,5.578,0,0,0,.409-.41A5.491,5.491,0,0,0,47.5,24.2H44.755a6.186,6.186,0,0,1-.417-.764h3.649a5.441,5.441,0,0,0,.409-.987H43.989a6.728,6.728,0,0,1-.169-.853h4.769a5.369,5.369,0,0,0,.077-.775c0-.073-.018-.139-.021-.213Z" transform="translate(6.005 -8.583)" fill="#111"/>
      <path id="Path_230" data-name="Path 230" d="M65.614,30.753H40.092l-.6-1.916a1.527,1.527,0,0,0-1.459-1.071h-7a1.529,1.529,0,1,0,0,3.058h5.878l.742,2.364a2.567,2.567,0,0,0,.119.635l1.816,5.528L42.7,49.276l.171.547a1.523,1.523,0,0,0,.465.683,1.506,1.506,0,0,0,1,.387h18.62A1.511,1.511,0,0,0,64.1,48.372a1.5,1.5,0,0,0-1.112-.531c-.009,0-.019-.006-.028-.006h-17.5l-1.193-3.8H63.375a2.807,2.807,0,0,0,1.01-.193,3.024,3.024,0,0,0,1.232-.884,2.841,2.841,0,0,0,.611-1.218l1.761-8.033a2.393,2.393,0,0,0-2.375-2.953ZM63.28,40.973h-.128L43.4,40.979a.356.356,0,0,0-.063-.026s0,0,0,.009l-.669-2.04h21.06Zm1.11-5.109H41.658l-.673-2.051H64.836Z" transform="translate(3.95 -7.366)" fill="#111"/>
      <circle id="Ellipse_112" data-name="Ellipse 112" cx="2.182" cy="2.182" r="2.182" transform="translate(49.432 45.19)" fill="#111"/>
      <circle id="Ellipse_113" data-name="Ellipse 113" cx="2.182" cy="2.182" r="2.182" transform="translate(62.563 45.19)" fill="#111"/>
    </g>
  </g>
</svg>
