<?xml version="1.0" encoding="utf-8"?>
<!-- Generator: Adobe Illustrator 23.0.3, SVG Export Plug-In . SVG Version: 6.00 Build 0)  -->
<svg version="1.1" id="圖層_1" xmlns="http://www.w3.org/2000/svg" xmlns:xlink="http://www.w3.org/1999/xlink" x="0px" y="0px"
	 viewBox="0 0 30.3 34.2" style="enable-background:new 0 0 30.3 34.2;" xml:space="preserve">
<style type="text/css">
	.st0{fill:#FFFFFF;}
</style>
<g id="會員" transform="translate(-1386.715 -76.288)">
	<g id="Ellipse_1">
		<path class="st0" d="M1401.9,96.3c-5.5,0-10-4.5-10-10s4.5-10,10-10c5.5,0,10,4.5,10,10S1407.4,96.3,1401.9,96.3z M1401.9,78.8
			c-4.1,0-7.5,3.4-7.5,7.5c0,4.1,3.4,7.5,7.5,7.5c4.1,0,7.5-3.4,7.5-7.5C1409.3,82.2,1406,78.8,1401.9,78.8z"/>
	</g>
	<g id="Path_15">
		<path class="st0" d="M1390.6,110.5L1390.6,110.5c-2.2,0-3.9-1.8-3.9-3.9c0-0.3,0-0.6,0.1-0.9c0.9-4,3.4-7.4,6.9-9.6
			c3.5-2.2,7.7-2.9,11.7-1.9c5.8,1.3,10.2,5.8,11.5,11.5c0.2,1,0.1,2.1-0.5,2.9c-0.5,0.9-1.4,1.5-2.4,1.7c-0.3,0.1-0.6,0.1-0.9,0.1
			H1390.6z M1390.6,108h22.5c0.1,0,0.2,0,0.3,0c0.4-0.1,0.7-0.3,0.8-0.6c0.2-0.3,0.3-0.7,0.2-1c-1.1-4.8-4.8-8.5-9.6-9.6
			c-3.4-0.8-6.8-0.2-9.8,1.6c-2.9,1.8-5,4.7-5.8,8c0,0.1,0,0.2,0,0.3C1389.3,107.3,1389.9,108,1390.6,108L1390.6,108z"/>
	</g>
</g>
</svg>
