<svg xmlns="http://www.w3.org/2000/svg" width="50" height="50" viewBox="0 0 50 50">
  <g id="Group_362" data-name="Group 362" transform="translate(-452 -202)">
    <g id="帳戶ICON" transform="translate(452 202)">
      <g id="Ellipse_9" data-name="Ellipse 9" fill="none" stroke="#111" stroke-width="1">
        <circle cx="25" cy="25" r="25" stroke="none"/>
        <circle cx="25" cy="25" r="24.5" fill="none"/>
      </g>
      <g id="Union_1" data-name="Union 1" transform="translate(9.47 4.486)" fill="#1c1c1c">
        <path d="M 15.28091144561768 36.50616073608398 C 11.33276176452637 36.50616073608398 7.660731315612793 35.97918319702148 4.941241264343262 35.02230072021484 C 2.915171384811401 34.30940246582031 0.5000014305114746 33.02547073364258 0.5000014305114746 30.9572925567627 C 0.5000014305114746 28.01187133789063 1.441921472549438 25.19045257568359 3.223921537399292 22.79804229736328 C 4.970911502838135 20.45265197753906 7.384491443634033 18.69297218322754 10.20373153686523 17.70926284790039 L 11.20406150817871 17.36022186279297 L 10.29872131347656 16.80991172790527 C 7.60767126083374 15.17417240142822 6.001081466674805 12.38382244110107 6.001081466674805 9.345742225646973 C 6.001081466674805 4.46818208694458 10.16399097442627 0.5000022649765015 15.28091144561768 0.5000022649765015 C 20.39783096313477 0.5000022649765015 24.56074142456055 4.46818208694458 24.56074142456055 9.345742225646973 C 24.56074142456055 12.38380241394043 22.95409202575684 15.17411231994629 20.26294136047363 16.8098030090332 L 19.3575611114502 17.3601016998291 L 20.35791206359863 17.70916175842285 C 23.17718124389648 18.69290161132813 25.59079170227051 20.45260238647461 27.33782196044922 22.79802322387695 C 29.11988067626953 25.19046211242676 30.06182098388672 28.01189231872559 30.06182098388672 30.9572925567627 C 30.06182098388672 33.02547073364258 27.64665222167969 34.30940246582031 25.62058067321777 35.02230072021484 C 22.90109062194824 35.97918319702148 19.22906112670898 36.50616073608398 15.28091144561768 36.50616073608398 Z" stroke="none"/>
        <path d="M 15.28091144561768 36.00616073608398 C 19.1175708770752 36.00616073608398 22.82574081420898 35.47564315795898 25.45462226867676 34.55064392089844 C 26.9885311126709 34.01092147827148 29.56182098388672 32.82640075683594 29.56182098388672 30.9572925567627 C 29.56182098388672 28.12033271789551 28.65411186218262 25.40218162536621 26.93683052062988 23.09670257568359 C 25.24970054626465 20.83169174194336 22.91778182983398 19.1319522857666 20.19318199157715 18.18124198913574 L 18.19249153137207 17.48312187194824 L 20.00325202941895 16.38253211975098 C 22.54392051696777 14.83830261230469 24.06074142456055 12.20772266387939 24.06074142456055 9.345742225646973 C 24.06074142456055 4.743882179260254 20.12212181091309 1.000002264976501 15.28091144561768 1.000002264976501 C 10.43970108032227 1.000002264976501 6.501081466674805 4.743882179260254 6.501081466674805 9.345742225646973 C 6.501081466674805 12.20774269104004 8.017851829528809 14.83836269378662 10.55843162536621 16.38265228271484 L 12.36910152435303 17.48326301574707 L 10.36846160888672 18.18134307861328 C 7.643881320953369 19.13203239440918 5.31200122833252 20.83174133300781 3.624911546707153 23.09672164916992 C 1.907681465148926 25.40217208862305 1.000001430511475 28.12031173706055 1.000001430511475 30.9572925567627 C 1.000001430511475 32.82640075683594 3.573291540145874 34.01092147827148 5.10720157623291 34.55064392089844 C 7.736081600189209 35.47564315795898 11.44425106048584 36.00616073608398 15.28091144561768 36.00616073608398 M 15.28091144561768 37.00616073608398 C 7.640451431274414 37.00616073608398 1.445617726858472e-06 34.98990249633789 1.445617726858472e-06 30.9572925567627 C 1.445617726858472e-06 24.65246200561523 4.18148136138916 19.28103256225586 10.03901100158691 17.23717308044434 C 7.310941219329834 15.57892227172852 5.501081466674805 12.66450214385986 5.501081466674805 9.345742225646973 C 5.501081466674805 4.184532165527344 9.879401206970215 2.275390670547495e-06 15.28091144561768 2.275390670547495e-06 C 20.68187141418457 2.275390670547495e-06 25.06074142456055 4.184532165527344 25.06074142456055 9.345742225646973 C 25.06074142456055 12.66450214385986 23.25073051452637 15.57892227172852 20.52264213562012 17.2370719909668 C 26.38017082214355 19.28098297119141 30.56182098388672 24.65246200561523 30.56182098388672 30.9572925567627 C 30.56182098388672 34.98990249633789 22.92137145996094 37.00616073608398 15.28091144561768 37.00616073608398 Z" stroke="none" fill="#111"/>
      </g>
    </g>
  </g>
</svg>
