<svg xmlns="http://www.w3.org/2000/svg" width="81.423" height="45.657" viewBox="0 0 81.423 45.657">
  <g id="logistics-delivery-truck-in-movement" transform="translate(0 -134.412)">
    <g id="Group_322" data-name="Group 322" transform="translate(0 134.412)">
      <path id="Path_213" data-name="Path 213" d="M30.169,166.467a6.8,6.8,0,1,0,6.8,6.807A6.8,6.8,0,0,0,30.169,166.467Zm0,10.2a3.4,3.4,0,1,1,3.4-3.4A3.4,3.4,0,0,1,30.169,176.672ZM81.423,161.44V168.7a3.278,3.278,0,0,1-3.278,3.278H74.638a8.993,8.993,0,0,0-17.8,0H39.065a8.987,8.987,0,0,0-17.786,0H16.886a3.277,3.277,0,0,1-3.278-3.278V161.44H81.423Zm-15.68,5.028a6.8,6.8,0,1,0,6.8,6.807A6.807,6.807,0,0,0,65.743,166.467Zm0,10.2a3.4,3.4,0,1,1,3.4-3.4A3.4,3.4,0,0,1,65.743,176.672Zm14.389-22.539L67.25,141.393a4.379,4.379,0,0,0-3.07-1.267h-6.5V137.69a3.273,3.273,0,0,0-3.278-3.278H16.884a3.28,3.28,0,0,0-3.278,3.278v.514l-13.3,1.533,23.568,3.069L0,145.177l23.79,3.382L0,150.622l13.607,2.566v6.44H81.42v-2.393A4.391,4.391,0,0,0,80.131,154.132Zm-5.616.426H62.05a.513.513,0,0,1-.514-.513V144.42a.513.513,0,0,1,.514-.514h2.371a.554.554,0,0,1,.361.142l10.084,9.625A.513.513,0,0,1,74.516,154.558Z" transform="translate(0 -134.412)" fill="#111"/>
    </g>
  </g>
</svg>
