<svg xmlns="http://www.w3.org/2000/svg" width="61" height="56.643" viewBox="0 0 61 56.643">
  <g id="bill-payment-invoice" transform="translate(-4 -6)">
    <path id="Path_231" data-name="Path 231" d="M51.317,6A3.317,3.317,0,0,0,48,9.317V23.688h6.633V9.317A3.317,3.317,0,0,0,51.317,6Z" transform="translate(3.734 0)" fill="#111"/>
    <path id="Path_232" data-name="Path 232" d="M63.377,37.106A1.106,1.106,0,0,0,62.271,36H29.106A1.106,1.106,0,0,0,28,37.106v1.106H63.377Z" transform="translate(1.623 2.659)" fill="#111"/>
    <path id="Path_233" data-name="Path 233" d="M19,17v2.211A1.106,1.106,0,0,0,19,17Z" transform="translate(1.335 0.975)" fill="#111"/>
    <path id="Path_234" data-name="Path 234" d="M16,14.106a1.106,1.106,0,0,0,1.106,1.106V13A1.106,1.106,0,0,0,16,14.106Z" transform="translate(1.068 0.739)" fill="#111"/>
    <rect id="Rectangle_1129" data-name="Rectangle 1129" width="35.377" height="2.211" transform="translate(29.623 43.014)" fill="#111"/>
    <path id="Path_235" data-name="Path 235" d="M27.747,57.2V39.768A3.292,3.292,0,0,1,31.064,36.5H49.858V9.268A5.339,5.339,0,0,1,50.992,6H13.375a3.292,3.292,0,0,0-3.317,3.268v51.2a4.265,4.265,0,0,1-.615,2.179h37.1a3.314,3.314,0,0,0,3.113-2.179H31.064A3.292,3.292,0,0,1,27.747,57.2ZM45.435,29.964H22.219V27.786H45.435ZM33.275,11.446H45.435v2.179H33.275Zm0,4.357H45.435v2.179H33.275Zm0,4.357H45.435v2.179H33.275Zm-6.633-8.714h4.422v2.179H26.642Zm0,4.357h4.422v2.179H26.642Zm0,4.357h4.422v2.179H26.642ZM20.008,34.321H14.481V32.143h5.528Zm0-4.357H14.481V27.786h5.528Zm0-6.536H17.8V22.339a3.292,3.292,0,0,1-3.317-3.268h2.211A1.1,1.1,0,0,0,17.8,20.161V17.982a3.268,3.268,0,1,1,0-6.536V10.357h2.211v1.089a3.292,3.292,0,0,1,3.317,3.268H21.114a1.1,1.1,0,0,0-1.106-1.089V15.8a3.268,3.268,0,1,1,0,6.536Zm2.211,8.714H45.435v2.179H22.219Z" transform="translate(0.574 0)" fill="#111"/>
    <path id="Path_236" data-name="Path 236" d="M6.211,59.477a2.211,2.211,0,0,0,2.211-2.211V44H4V57.266A2.211,2.211,0,0,0,6.211,59.477Z" transform="translate(0 3.166)" fill="#111"/>
    <path id="Path_237" data-name="Path 237" d="M63.377,53.95V44H28v9.95a1.106,1.106,0,0,0,1.106,1.106H62.271A1.106,1.106,0,0,0,63.377,53.95ZM30.211,46.211h4.422v2.211H30.211Zm7.739,6.633H30.211V50.633H37.95Zm19.9,0a3.292,3.292,0,0,1-1.658-.451,3.317,3.317,0,1,1,0-5.731,3.317,3.317,0,1,1,1.658,6.182Z" transform="translate(1.623 3.166)" fill="#111"/>
    <path id="Path_238" data-name="Path 238" d="M55.423,48a1.1,1.1,0,0,0-.827.385,1.139,1.139,0,0,1-1.658,0,1.106,1.106,0,1,0,0,1.437,1.106,1.106,0,0,1,1.658,0A1.106,1.106,0,1,0,55.423,48Z" transform="translate(4.049 3.587)" fill="#111"/>
  </g>
</svg>
