<svg id="Canon" xmlns="http://www.w3.org/2000/svg" width="110.163" height="22.8" viewBox="0 0 110.163 22.8">
  <path id="Path_25" data-name="Path 25" d="M761.575,2230.4l-8.778,5.172-.079-.076c.1-.178.2-.358.31-.535,1.327-2.221,2.647-4.447,3.991-6.657.207-.34.148-.488-.175-.672a8.174,8.174,0,0,0-7.544-.43,9.174,9.174,0,0,0-3.73,14.62,8.256,8.256,0,0,0,7.9,3.147,9.488,9.488,0,0,0,5.323-2.225c.583-.516,1.069-1.139,1.633-1.749.134.289.308.617.432.962.032.088-.07.259-.156.347-.354.364-.714.724-1.092,1.063a14.964,14.964,0,0,1-8.923,3.793,18.888,18.888,0,0,1-11.608-2.728,8.228,8.228,0,0,1-4.248-5.932c-.724-4.888.976-10.118,6.751-12.6a18.445,18.445,0,0,1,6.177-1.4,17.636,17.636,0,0,1,6.622.655,14.023,14.023,0,0,1,6.784,4.677C761.293,2230,761.411,2230.176,761.575,2230.4Z" transform="translate(-734.666 -2224.44)" fill="#ffb11b"/>
  <path id="Path_26" data-name="Path 26" d="M802.211,2247.336c-.166.016-.285.038-.4.038-1.926-.023-3.853-.061-5.779-.067-.429,0-.588-.116-.588-.569,0-3.052-.022-6.1-.039-9.155-.009-1.557-.034-3.113-.027-4.67,0-.4-.112-.541-.526-.528-.955.028-1.911.01-2.867.007-.146,0-.292-.012-.44-.02.008-.05.005-.073.013-.077a25.584,25.584,0,0,1,6.7-3.032,2.925,2.925,0,0,1,3.833,2.156c.047.143.1.284.163.477.578-.258,1.122-.5,1.664-.744,1.2-.548,2.413-1.087,3.609-1.653a3.971,3.971,0,0,1,3.187-.007,1.777,1.777,0,0,1,.921.847,5.936,5.936,0,0,1,.638,2.184c.085,4.838.09,9.678.12,14.519,0,.12-.013.241-.023.4-.166.013-.314.036-.463.036-1.912,0-3.823-.009-5.733.01-.4,0-.529-.109-.533-.517-.035-3.144-.094-6.288-.141-9.431-.017-1.141-.013-2.282-.033-3.422-.018-1.09-.54-1.62-1.573-1.622a1.608,1.608,0,0,0-1.676,1.652c-.006.154,0,.308,0,.462v12.725Z" transform="translate(-744.145 -2225.222)" fill="#ffb11b"/>
  <path id="Path_27" data-name="Path 27" d="M841.787,2232.363a26.144,26.144,0,0,1,7.063-3.091,2.8,2.8,0,0,1,3.419,1.882c.1.24.173.491.278.792.177-.07.344-.127.5-.2,1.483-.677,2.98-1.328,4.444-2.043a4.478,4.478,0,0,1,3.365-.223,1.628,1.628,0,0,1,1.119.967,6.977,6.977,0,0,1,.587,2.2c.081,4.823.088,9.647.117,14.47,0,.122-.016.242-.027.4h-6.673a3.022,3.022,0,0,1-.035-.31q-.1-6.5-.185-12.99c-.013-1.042-.432-1.562-1.347-1.642a1.576,1.576,0,0,0-1.859,1.378,3.576,3.576,0,0,0-.055.688q-.005,6.08,0,12.16v.587h-6.733c0-.262,0-.457,0-.652-.03-4.578-.066-9.154-.081-13.732,0-.428-.124-.549-.547-.539-1.106.028-2.213.01-3.319.01Z" transform="translate(-752.52 -2225.232)" fill="#ffb11b"/>
  <path id="Path_28" data-name="Path 28" d="M779.835,2237.535c-.059-.252-.087-.4-.128-.535-.384-1.344-.782-2.685-1.147-4.035a.587.587,0,0,0-.667-.514c-2.233-.023-4.467-.072-6.7-.116a2.969,2.969,0,0,1-.906-.136c.943-.358,1.886-.72,2.831-1.075q2.417-.91,4.837-1.812a6.028,6.028,0,0,1,7.463,3.967c1.154,4.542,2.351,9.073,3.528,13.608.042.163.081.327.135.546-.29.023-.558.059-.827.063-1.71.022-3.42.032-5.13.062a.444.444,0,0,1-.516-.383c-.253-.9-.539-1.787-.83-2.738-.13.122-.222.2-.3.283a9.421,9.421,0,0,1-6.455,3.086,8.389,8.389,0,0,1-3.248-.243,6.374,6.374,0,0,1-4.471-5.061,4.144,4.144,0,0,1,.651-3.386,6.974,6.974,0,0,1,6.871-3.173A10.565,10.565,0,0,1,779.835,2237.535ZM774,2241.822a3.5,3.5,0,1,0,3.489-3.5A3.495,3.495,0,0,0,774,2241.822Z" transform="translate(-740.086 -2225.203)" fill="#ffb11b"/>
  <path id="Path_29" data-name="Path 29" d="M828.557,2229.171a9.371,9.371,0,1,1-9.4,9.276A9.339,9.339,0,0,1,828.557,2229.171Zm-1.422,1.253a1.941,1.941,0,0,0-2.1,2.152,4.239,4.239,0,0,0,.149,1c.97,3.606,1.934,7.213,2.947,10.808a4.659,4.659,0,0,0,.856,1.607,1.831,1.831,0,0,0,2.434.332,1.725,1.725,0,0,0,.945-2.047c-.042-.21-.122-.412-.178-.619q-1.615-5.892-3.229-11.783A2.137,2.137,0,0,0,827.136,2230.424Z" transform="translate(-748.747 -2225.229)" fill="#ffb11b"/>
</svg>
