<svg xmlns="http://www.w3.org/2000/svg" xmlns:xlink="http://www.w3.org/1999/xlink" width="32.493" height="31.729" viewBox="0 0 32.493 31.729">
  <defs>
    <clipPath id="clip-path">
      <path id="Path_175" data-name="Path 175" d="M-245.641-242.368l7.15,12.38a16.218,16.218,0,0,0,4.309-11.035c0-.429-.021-.871-.065-1.345Zm12.224-1.281a17.167,17.167,0,0,0-2.977-7.37l-4.322,7.37Zm-3.82-8.463a17.3,17.3,0,0,0-7.062-5.069l4.948,8.672Zm-22.12,23.667a15.178,15.178,0,0,0,8.82,2.8,15.259,15.259,0,0,0,10.612-4.27l-9.284-16.075Zm13.954-28.084a16.173,16.173,0,0,0-5.134-.844,16.319,16.319,0,0,0-11.954,5.209h19.579Zm-16.91,5.646a15.363,15.363,0,0,0-3.6,9.859,15.292,15.292,0,0,0,5.53,11.8l12.522-21.658Z" transform="translate(265.91 257.373)" fill="none"/>
    </clipPath>
  </defs>
  <g id="Group_279" data-name="Group 279" transform="translate(265.91 257.373)">
    <g id="Group_197" data-name="Group 197" transform="translate(-265.91 -257.373)">
      <path id="Path_168" data-name="Path 168" d="M-141.09-172.114c0-.429-.021-.871-.065-1.345H-152.55l7.15,12.38A16.218,16.218,0,0,0-141.09-172.114Z" transform="translate(172.82 188.463)" fill="#989898"/>
      <path id="Path_169" data-name="Path 169" d="M-117.711-214.471a17.166,17.166,0,0,0-2.977-7.37l-4.322,7.37Z" transform="translate(150.204 228.194)" fill="#7f7f80"/>
      <path id="Path_170" data-name="Path 170" d="M-137.985-251.231a17.3,17.3,0,0,0-7.062-5.069l4.948,8.672Z" transform="translate(166.658 256.492)" fill="#666"/>
      <path id="Path_171" data-name="Path 171" d="M-229.265-176.162a15.178,15.178,0,0,0,8.82,2.8,15.259,15.259,0,0,0,10.612-4.27l-9.284-16.075Z" transform="translate(235.817 205.09)" fill="#cbcbcb"/>
      <path id="Path_172" data-name="Path 172" d="M-246.79-252.164h19.579l-2.492-4.365a16.173,16.173,0,0,0-5.134-.844A16.319,16.319,0,0,0-246.79-252.164Z" transform="translate(250.209 257.373)" fill="#b2b2b2"/>
      <path id="Path_173" data-name="Path 173" d="M-247.858-221.077h-14.455a15.363,15.363,0,0,0-3.6,9.859,15.292,15.292,0,0,0,5.53,11.8Z" transform="translate(265.91 227.567)" fill="#e5e5e4"/>
    </g>
    <g id="Group_200" data-name="Group 200" transform="translate(-265.91 -257.373)">
      <g id="Group_199" data-name="Group 199" clip-path="url(#clip-path)">
        <g id="Group_198" data-name="Group 198" transform="translate(-0.08 0.917)">
          <path id="Path_174" data-name="Path 174" d="M-250.908-221.349A15.465,15.465,0,0,1-266.355-236.8a15.465,15.465,0,0,1,15.447-15.448,15.373,15.373,0,0,1,7.077,1.713c.236.6.856,2.137.856,2.137l-1.44,2.1a11.437,11.437,0,0,0-6.493-2.006,11.516,11.516,0,0,0-11.5,11.5,11.516,11.516,0,0,0,11.5,11.5,11.513,11.513,0,0,0,8.629-3.9l2.958,2.61A15.46,15.46,0,0,1-250.908-221.349Z" transform="translate(266.355 252.244)" fill="#ffb11b"/>
        </g>
      </g>
    </g>
    <g id="Group_203" data-name="Group 203" transform="translate(-265.91 -257.373)">
      <g id="Group_202" data-name="Group 202" clip-path="url(#clip-path)">
        <g id="Group_201" data-name="Group 201" transform="translate(1.03 2.026)">
          <path id="Path_176" data-name="Path 176" d="M-245.813-217.363A14.354,14.354,0,0,1-260.151-231.7a14.355,14.355,0,0,1,14.338-14.338,14.258,14.258,0,0,1,8.1,2.5l-.975,1.423a12.542,12.542,0,0,0-7.12-2.2A12.627,12.627,0,0,0-258.426-231.7a12.627,12.627,0,0,0,12.613,12.613,12.624,12.624,0,0,0,9.461-4.272l1.294,1.142A14.35,14.35,0,0,1-245.813-217.363Z" transform="translate(260.151 246.04)" fill="#ffb11b"/>
        </g>
      </g>
    </g>
  </g>
</svg>
