<?xml version="1.0" encoding="utf-8"?>
<!-- Generator: Adobe Illustrator 23.0.3, SVG Export Plug-In . SVG Version: 6.00 Build 0)  -->
<svg version="1.1" id="圖層_1" xmlns="http://www.w3.org/2000/svg" xmlns:xlink="http://www.w3.org/1999/xlink" x="0px" y="0px"
	 viewBox="0 0 45 45" style="enable-background:new 0 0 45 45;" xml:space="preserve">
<style type="text/css">
	.st0{fill:#111111;}
	.st1{fill:none;}
	.st2{fill:#7D7D7D;}
</style>
<g id="Group_333" transform="translate(2 137)">
	<g id="Group_261">
		<g id="Ellipse_28">
			<g>
				<path class="st0" d="M20.5-92C8.09-92-2-102.09-2-114.5S8.09-137,20.5-137S43-126.91,43-114.5S32.91-92,20.5-92z M20.5-136
					C8.65-136-1-126.36-1-114.5S8.65-93,20.5-93S42-102.64,42-114.5S32.35-136,20.5-136z"/>
			</g>
		</g>
		<g id="Path_47" transform="translate(10.94 7.02)">
			<g>
				<path class="st0" d="M3.74-129.21c-2.7,0-4.74,2.45-4.74,5.71c0,3.53,3.63,6.07,6.84,8.32c1.46,1.02,2.78,1.95,3.72,2.92
					c0.95-0.99,2.28-1.92,3.76-2.95c3.19-2.23,6.8-4.76,6.8-8.28c0-1.66-0.47-3.13-1.32-4.15c-0.8-0.96-1.88-1.47-3.11-1.47
					c-1.73,0-3.64,1.02-5.4,2.88l-0.79,0.83l-0.72-0.89C7.26-128.17,5.47-129.21,3.74-129.21 M3.74-130.21
					c1.88,0,3.96,0.98,5.82,3.28c2.11-2.23,4.26-3.19,6.13-3.19c3.11,0,5.43,2.68,5.43,6.62c0,6.3-9.42,9.38-11.56,12.83
					C7.46-114.07-2-117.19-2-123.5C-2-127.44,0.58-130.21,3.74-130.21z"/>
			</g>
		</g>
	</g>
</g>
</svg>
