<svg id="圖層_1" data-name="圖層 1" xmlns="http://www.w3.org/2000/svg" viewBox="0 0 56.69 56.69"><defs><style>.cls-1,.cls-2,.cls-5{fill:none;}.cls-2,.cls-5{stroke:#707070;}.cls-2{stroke-width:2px;}.cls-3{fill:#fff;}.cls-4{fill:#707070;}</style></defs><title>order_gps</title><g id="Group_366" data-name="Group 366"><g id="Ellipse_128" data-name="Ellipse 128"><circle class="cls-1" cx="28.35" cy="28.35" r="28.35"/><circle class="cls-2" cx="28.35" cy="28.35" r="27.21"/></g><g id="Group_368" data-name="Group 368"><g id="Group_361" data-name="Group 361"><g id="Union_5" data-name="Union 5"><path class="cls-3" d="M29.76,44.48,20.82,25.66l0-.07-.05-.06a4.26,4.26,0,0,1-1.09-2.25v-.06a2.3,2.3,0,0,1,0-.37c0-1.54,1-3,2.86-4.13a14.13,14.13,0,0,1,7.27-1.83A14.11,14.11,0,0,1,37,18.72c1.85,1.12,2.86,2.59,2.86,4.13a2.3,2.3,0,0,1,0,.37v.06a4.32,4.32,0,0,1-1.08,2.25l-.06.06,0,.07Z" transform="translate(-1.42 -1.42)"/><path class="cls-4" d="M29.76,17.46c-5.19,0-9.56,2.46-9.56,5.39,0,.1,0,.21,0,.31v.05a3.65,3.65,0,0,0,.94,1.95l.11.12.06.14,8.43,17.73,8.42-17.73.07-.14.1-.12a3.65,3.65,0,0,0,.94-1.95v-.05c0-.1,0-.21,0-.31,0-2.93-4.38-5.39-9.56-5.39m0-1.14c5.9,0,10.69,2.92,10.69,6.53,0,.14,0,.29,0,.43h0l0,.07a4.84,4.84,0,0,1-1.22,2.56L29.76,45.8,20.31,25.91a4.84,4.84,0,0,1-1.22-2.56l0-.07h0c0-.14,0-.29,0-.43C19.06,19.24,23.85,16.32,29.76,16.32Z" transform="translate(-1.42 -1.42)"/></g><g id="Ellipse_125" data-name="Ellipse 125"><ellipse class="cls-3" cx="28.5" cy="22.94" rx="3.19" ry="3.26"/><ellipse class="cls-5" cx="28.5" cy="22.94" rx="2.63" ry="2.7"/></g></g></g></g></svg>