<svg id="Nikon" xmlns="http://www.w3.org/2000/svg" width="94.033" height="24.157" viewBox="0 0 94.033 24.157">
  <path id="Path_33" data-name="Path 33" d="M934.84,2246.715h-7.013l-2.265-8.666-.2-.033-3.032,8.689h-7.7l8.14-23.255h6.648l2.441,9.259.207.037,3.227-9.276h7.7Z" transform="translate(-914.622 -2223.442)" fill="#ffb11b"/>
  <path id="Path_34" data-name="Path 34" d="M962.011,2223.441h7.442c-1.532,4.436-3.038,8.8-4.546,13.165l.164.094,4.088-4.754h8.472l-6.465,7.667,1.283,7.078h-7.755l-1.137-5.56-.2-.056q-1.029,2.815-2.059,5.634h-7.432C956.594,2238.917,959.294,2231.2,962.011,2223.441Z" transform="translate(-921.163 -2223.441)" fill="#ffb11b"/>
  <path id="Path_35" data-name="Path 35" d="M987.012,2249.136c-.789-.013-1.578-.068-2.362-.146a11.247,11.247,0,0,1-2.634-.508,5.97,5.97,0,0,1-3.768-5.552,9.74,9.74,0,0,1,8.04-9.881,17.008,17.008,0,0,1,8.162.3,5.715,5.715,0,0,1,4.173,5.659,9.478,9.478,0,0,1-7.148,9.641A16.154,16.154,0,0,1,987.012,2249.136Zm3.76-9.614c0-.985-.343-1.963-1.525-1.892a2.118,2.118,0,0,0-1.323.64,8.019,8.019,0,0,0-1.6,3.7,1.652,1.652,0,0,0,1.34,2.166c1.734.24,2.622-2.137,2.959-3.45A4.893,4.893,0,0,0,990.772,2239.522Z" transform="translate(-925.226 -2224.983)" fill="#ffb11b"/>
  <path id="Path_36" data-name="Path 36" d="M1019.341,2248.359h-7.348c.1-.337.173-.619.269-.894.658-1.873,1.33-3.742,1.98-5.617.358-1.035.184-1.735-.473-2.094a1.951,1.951,0,0,0-2.254.577,3.916,3.916,0,0,0-.624,1.144c-.718,2-1.406,4.01-2.108,6.016-.1.282-.214.558-.333.865h-7.693l5.174-14.746h7.671l-.684,1.982a33.269,33.269,0,0,1,3-1.539,7.824,7.824,0,0,1,4.757-.475,2.826,2.826,0,0,1,2.32,2.752,6.189,6.189,0,0,1-.216,2.253c-1.042,3.156-2.168,6.287-3.267,9.425A3.588,3.588,0,0,1,1019.341,2248.359Z" transform="translate(-928.977 -2225.1)" fill="#ffb11b"/>
  <path id="Path_37" data-name="Path 37" d="M949.261,2248.394h-7.315l5.173-14.733h7.31Z" transform="translate(-919.176 -2225.144)" fill="#ffb11b"/>
  <path id="Path_38" data-name="Path 38" d="M949.825,2227.326a2.849,2.849,0,0,1,1.8-2.853,5.721,5.721,0,0,1,4.318-.262,2.719,2.719,0,0,1,2,2.485,2.77,2.77,0,0,1-1.271,2.742,5.464,5.464,0,0,1-5.1.571A2.5,2.5,0,0,1,949.825,2227.326Z" transform="translate(-920.488 -2223.52)" fill="#ffb11b"/>
</svg>
