<?xml version="1.0" encoding="utf-8"?>
<!-- Generator: Adobe Illustrator 23.0.3, SVG Export Plug-In . SVG Version: 6.00 Build 0)  -->
<svg version="1.1" id="圖層_1" xmlns="http://www.w3.org/2000/svg" xmlns:xlink="http://www.w3.org/1999/xlink" x="0px" y="0px"
	 viewBox="0 0 27.5 27.5" style="enable-background:new 0 0 27.5 27.5;" xml:space="preserve">
<style type="text/css">
	.st0{fill:#FFFFFF;}
</style>
<g transform="scale(0.0234375 0.0234375)">
	<path class="st0" d="M538,1027c0-27-11-51.5-28.7-69.2c-17.7-17.7-42.2-28.7-69.2-28.7c-27,0-51.5,11-69.2,28.7
		c-17.7,17.7-28.7,42.2-28.7,69.2c0,27,11,51.5,28.7,69.2c17.7,17.7,42.2,28.7,69.2,28.7c27,0,51.5-11,69.2-28.7
		C527,1078.5,538,1054,538,1027z M1076,1027c0-27-11-51.5-28.7-69.2c-17.7-17.7-42.2-28.7-69.2-28.7c-27,0-51.5,11-69.2,28.7
		c-17.7,17.7-28.7,42.2-28.7,69.2c0,27,11,51.5,28.7,69.2c17.7,17.7,42.2,28.7,69.2,28.7c27,0,51.5-11,69.2-28.7
		S1076,1054,1076,1027z M353.2,342.3h712.6L998.7,694c-2.3,11.2-8.1,20.8-16.2,27.8c-8.8,7.6-20.2,12-33.6,11.8H472.7
		c-11.3,0.1-22.1-3.5-30.6-9.9c-9.3-7-16.1-17.2-18.5-29.5L353.2,342.3z M48.9,97.8h155.5l41.5,207.3c5.3,21.4,24.6,37.2,47.5,37.2
		h59.7l-19.6-97.8h-40.2c-27,0-48.9,21.9-48.9,48.9c0,2.6,0.2,5.1,0.6,7.6c0.2,1.4,0.5,2.8,0.8,4.1l81.7,408.2
		c7.3,36.7,27.8,67.6,55.8,88.6c25.5,19.2,57.2,30,90.7,29.5h474.7c36.6,0.7,71.2-12.8,97.6-35.6c24.2-20.8,41.5-49.5,48.2-82.3
		l78.3-410.9c5-26.6-12.3-52.1-38.9-57.2c-3.2-0.6-6.4-0.9-9.1-0.9H333.5L292.5,39.3C287.9,16.7,268.2,0,244.5,0H48.9
		C21.9,0,0,21.9,0,48.9S21.9,97.8,48.9,97.8L48.9,97.8z"/>
</g>
</svg>
