<?xml version="1.0" encoding="utf-8"?>
<!-- Generator: Adobe Illustrator 23.0.3, SVG Export Plug-In . SVG Version: 6.00 Build 0)  -->
<svg version="1.1" id="圖層_1" xmlns="http://www.w3.org/2000/svg" xmlns:xlink="http://www.w3.org/1999/xlink" x="0px" y="0px"
	 viewBox="0 0 45 45" style="enable-background:new 0 0 45 45;" xml:space="preserve">
<style type="text/css">
	.st0{fill:#111111;}
	.st1{fill:none;}
	.st2{fill:#7D7D7D;}
</style>
<path d="M22.5,0C10.09,0,0,10.09,0,22.5S10.09,45,22.5,45S45,34.91,45,22.5S34.91,0,22.5,0z M22.5,44C10.65,44,1,34.36,1,22.5
	C1,10.65,10.65,1,22.5,1S44,10.65,44,22.5C44,34.36,34.35,44,22.5,44z M27.76,14.77h3.19v16.95H15V14.77h3.19v2h9.56v-5h-9.56v2H14
	v18.95h17.95V13.77h-4.19V14.77z M19.19,12.77h7.56v3h-7.56V12.77z M27.5,20.05h-9v1h9V20.05z M18.5,26.05h9v-1h-9V26.05z"/>
</svg>
