<?xml version="1.0" encoding="utf-8"?>
<!-- Generator: Adobe Illustrator 23.0.3, SVG Export Plug-In . SVG Version: 6.00 Build 0)  -->
<svg version="1.1" id="圖層_1" xmlns="http://www.w3.org/2000/svg" xmlns:xlink="http://www.w3.org/1999/xlink" x="0px" y="0px"
	 viewBox="0 0 62.4 90.7" style="enable-background:new 0 0 62.4 90.7;" xml:space="preserve">
<style type="text/css">
	.st0{fill:#707070;}
	.st1{font-family:'MicrosoftJhengHeiLight';}
	.st2{font-size:15.5908px;}
	.st3{fill:none;}
	.st4{fill:#FFFFFF;stroke:#707070;stroke-width:2;}
	.st5{fill:#FFFFFF;}
	.st6{fill:none;stroke:#707070;}
</style>
<g>
	<title>order_list</title>
	<text transform="matrix(1 0 0 1 7.795 84.9524)" class="st0 st1 st2">已送達</text>
	<g>
		<g id="Group_366">
			<g id="Ellipse_128">
				<circle class="st3" cx="31.2" cy="30.1" r="28.4"/>
				<circle class="st4" cx="31.2" cy="30.1" r="27.2"/>
			</g>
			<g id="Group_368">
				<g id="Group_361">
					<g id="Union_5">
						<path class="st5" d="M31.2,44.9l-8.9-18.8V26v-0.1c-0.6-0.6-1-1.4-1.1-2.3v-0.1c0-0.1,0-0.2,0-0.4c0-1.5,1-3,2.9-4.1
							c2.2-1.3,4.7-1.9,7.3-1.8c2.5,0,5,0.6,7.2,1.8c1.8,1.1,2.9,2.6,2.9,4.1c0,0.1,0,0.2,0,0.4v0.1c-0.1,0.8-0.5,1.6-1.1,2.3
							L40.3,26v0.1L31.2,44.9z"/>
						<path class="st0" d="M31.2,17.8c-5.2,0-9.6,2.5-9.6,5.4c0,0.1,0,0.2,0,0.3l0,0c0.1,0.7,0.4,1.4,0.9,2l0.1,0.1l0.1,0.1
							l8.4,17.7l8.5-17.6l0.1-0.1l0.1-0.1c0.5-0.5,0.8-1.2,0.9-2l0,0c0-0.1,0-0.2,0-0.3C40.7,20.3,36.4,17.8,31.2,17.8 M31.2,16.7
							c5.9,0,10.7,2.9,10.7,6.5c0,0.1,0,0.3,0,0.4l0,0v0.1c-0.1,1-0.6,1.8-1.2,2.6l-9.4,19.9l-9.5-19.9c-0.7-0.7-1.1-1.6-1.2-2.6
							v-0.1l0,0c0-0.1,0-0.3,0-0.4C20.5,19.6,25.3,16.7,31.2,16.7L31.2,16.7z"/>
					</g>
					<g id="Ellipse_125">
						<ellipse class="st5" cx="31.4" cy="24.7" rx="3.2" ry="3.3"/>
						<ellipse class="st6" cx="31.4" cy="24.7" rx="2.6" ry="2.7"/>
					</g>
				</g>
			</g>
		</g>
	</g>
</g>
</svg>
