<?xml version="1.0" encoding="utf-8"?>
<!-- Generator: Adobe Illustrator 23.0.3, SVG Export Plug-In . SVG Version: 6.00 Build 0)  -->
<svg version="1.1" id="圖層_1" xmlns="http://www.w3.org/2000/svg" xmlns:xlink="http://www.w3.org/1999/xlink" x="0px" y="0px"
	 viewBox="0 0 45 45" style="enable-background:new 0 0 45 45;" xml:space="preserve">
<style type="text/css">
	.st0{fill:#111111;}
	.st1{fill:none;}
	.st2{fill:#7D7D7D;}
</style>
<g>
	<g>
		<path class="st0" d="M21.82,20.97c-0.58-2.25-2.62-3.75-4.84-3.75c-0.41,0-0.83,0.05-1.25,0.16c-2.67,0.69-4.28,3.42-3.59,6.09
			c0.33,1.29,1.15,2.38,2.3,3.06c1.15,0.68,2.5,0.87,3.79,0.53c1.76-0.45,3.14-1.83,3.59-3.59l0.1-0.38h7.96v2.75h1.75V23.1H33
			v-1.75H21.92L21.82,20.97z M17,26.16c-2.17,0-3.94-1.77-3.94-3.94s1.77-3.94,3.94-3.94s3.94,1.77,3.94,3.94
			C20.94,24.39,19.17,26.16,17,26.16z"/>
	</g>
</g>
<g id="Ellipse_10_1_">
	<g>
		<path class="st0" d="M22.5,45C10.09,45,0,34.91,0,22.5S10.09,0,22.5,0S45,10.09,45,22.5S34.91,45,22.5,45z M22.5,1
			C10.65,1,1,10.65,1,22.5S10.65,44,22.5,44S44,34.35,44,22.5S34.35,1,22.5,1z"/>
	</g>
</g>
</svg>
