<?xml version="1.0" encoding="utf-8"?>
<!-- Generator: Adobe Illustrator 23.0.3, SVG Export Plug-In . SVG Version: 6.00 Build 0)  -->
<svg version="1.1" id="圖層_1" xmlns="http://www.w3.org/2000/svg" xmlns:xlink="http://www.w3.org/1999/xlink" x="0px" y="0px"
	 viewBox="0 0 301 219" style="enable-background:new 0 0 301 219;" xml:space="preserve">
<style type="text/css">
	.st0{fill:#F5A418;}
</style>
<g id="SG1">
	<path id="Path_66" class="st0" d="M109.31,65.54h22.24c1.92,0,3.49-1.56,3.49-3.48c0-1.92-1.56-3.49-3.48-3.49c0,0,0,0-0.01,0
		h-22.24c-1.92,0-3.48,1.56-3.48,3.49C105.83,63.98,107.38,65.54,109.31,65.54z"/>
	<path id="Path_67" class="st0" d="M109.31,45.02h22.24c1.92,0,3.48-1.56,3.48-3.49c0-1.92-1.56-3.48-3.48-3.48h-22.24
		c-1.92,0-3.48,1.56-3.48,3.49C105.83,43.46,107.38,45.02,109.31,45.02z"/>
	<path id="Path_68" class="st0" d="M223.2,70.94c-6.41,0-12.8,0.89-18.96,2.66c-5.77-12.31-13.96-23.34-24.08-32.43
		c-10.01-8.96-21.85-15.64-34.7-19.59l0.91-8.74c0.2-1.91-1.19-3.63-3.1-3.83C143.14,9.01,143.02,9,142.9,9H95.78
		c-1.92-0.01-3.49,1.55-3.5,3.47c0,0.13,0.01,0.25,0.02,0.38l0.91,8.74c-19.43,6.08-36.39,18.24-48.39,34.68
		c-12.68,17.35-19.76,38.16-20.28,59.64h-9.06c-1.92,0-3.48,1.56-3.48,3.48v24c0,1.92,1.56,3.48,3.48,3.48c0,0,0,0,0,0h139.28
		c3.95,37.79,37.78,65.23,75.57,61.28c37.79-3.95,65.23-37.78,61.28-75.57C287.96,97.56,258.43,70.94,223.2,70.94L223.2,70.94z
		 M97.88,27.5c1.66-0.44,2.75-2.02,2.57-3.73l-0.81-7.8h39.4l-0.81,7.8c-0.18,1.7,0.91,3.28,2.57,3.73c4.89,1.3,9.64,3.06,14.2,5.25
		v10.22c-0.01,22.16-13.82,41.98-34.61,49.65l-0.17-0.05c-21.82-7.06-36.59-27.4-36.55-50.33v-9.49C88.24,30.56,93,28.8,97.88,27.5z
		 M50.43,60.39c7.09-9.64,16.02-17.77,26.28-23.93v5.76c-0.05,25.95,16.66,48.96,41.35,56.95l1.28,0.42
		c0.72,0.23,1.5,0.23,2.21-0.02c24.17-8.32,40.39-31.05,40.41-56.61v-6.48c15.47,9.37,27.86,23.06,35.63,39.39
		c-18.03,7.28-32.17,21.81-38.95,40.03H31.52C32.04,95.92,38.64,76.55,50.43,60.39L50.43,60.39z M18.97,139.91v-17.04H156.5
		c-1.39,5.51-2.09,11.17-2.09,16.86v0.18L18.97,139.91z M223.2,201.57c-34.15,0-61.83-27.69-61.83-61.83
		c0-34.15,27.69-61.83,61.83-61.83c34.15,0,61.83,27.68,61.83,61.83C285.04,173.89,257.35,201.57,223.2,201.57z"/>
	<path id="Path_69" class="st0" d="M259.57,110L224.73,92.9c-0.97-0.47-2.1-0.47-3.06,0l-34.84,17.04c-1.2,0.59-1.95,1.8-1.95,3.13
		v32.61c0.1,4.22,1.11,8.36,2.96,12.16c2.23,5.03,5.74,9.4,10.17,12.66l23.22,15.82c1.18,0.81,2.74,0.81,3.92,0l23.22-15.82
		c7.84-5.92,12.65-15.01,13.13-24.82v-32.56C261.52,111.79,260.76,110.58,259.57,110z M254.55,145.68
		c-0.48,7.51-4.15,14.45-10.09,19.06l-21.26,14.49l-21.26-14.49c-3.39-2.56-6.06-5.95-7.78-9.84c-1.41-2.88-2.2-6.02-2.31-9.22
		v-30.43L223.2,99.9l31.35,15.39L254.55,145.68z"/>
	<path id="Path_70" class="st0" d="M210.89,136.23c-1.38-1.34-3.58-1.32-4.93,0.06c-1.34,1.38-1.32,3.58,0.06,4.93l0,0l10.52,10.26
		c1.35,1.32,3.51,1.32,4.87,0l18.96-18.48c1.38-1.34,1.4-3.55,0.06-4.93c-1.34-1.38-3.55-1.4-4.93-0.06l0,0l-16.53,16.12
		L210.89,136.23z"/>
</g>
</svg>
