<?xml version="1.0" encoding="utf-8"?>
<!-- Generator: Adobe Illustrator 23.0.3, SVG Export Plug-In . SVG Version: 6.00 Build 0)  -->
<svg version="1.1" id="圖層_1" xmlns="http://www.w3.org/2000/svg" xmlns:xlink="http://www.w3.org/1999/xlink" x="0px" y="0px"
	 viewBox="0 0 301 219" style="enable-background:new 0 0 301 219;" xml:space="preserve">
<style type="text/css">
	.st0{fill:#F5A418;}
</style>
<g id="Group_59" transform="translate(36.601 0)">
	<g id="Group_58">
		<path id="Path_71" class="st0" d="M207.26,21.77L194.87,9.38c-8.35-8.09-21.47-8.54-30.35-1.05l-21.77,18.87
			c-0.28,0.24-0.52,0.53-0.71,0.85l-21.2,35.3l-13.6,4.53c-1.83,0.61-2.82,2.59-2.21,4.42c0.17,0.51,0.46,0.98,0.84,1.37
			l37.08,37.09c1.37,1.37,3.58,1.37,4.95,0c0.38-0.38,0.67-0.85,0.84-1.37l4.53-13.6l35.82-21.63c0.32-0.19,0.61-0.43,0.85-0.71
			l18.42-21.35C215.83,43.2,215.35,30.1,207.26,21.77z M203.09,47.53l-18.06,20.94l-36.45,22.01c-0.71,0.43-1.25,1.1-1.51,1.89
			l-3.16,9.47l-8.36-8.36l0,0l-12.36-12.36l0,0l-8.36-8.36l9.47-3.16c0.79-0.26,1.46-0.8,1.89-1.52l21.57-35.93l21.35-18.52
			c6.09-5.15,15.09-4.84,20.82,0.71l12.39,12.39C207.87,32.43,208.2,41.42,203.09,47.53z"/>
	</g>
</g>
<g id="Group_61" transform="translate(0 2.277)">
	<g id="Group_60">
		<path id="Path_72" class="st0" d="M233.51,146.48c-10.62-10.63-26.3-14.4-40.59-9.77l-77.21-77.23
			c6.8-21.01-4.71-43.55-25.71-50.36c-8.79-2.85-18.3-2.56-26.91,0.81c-1.87,0.73-2.79,2.84-2.06,4.71
			c0.18,0.47,0.46,0.89,0.81,1.24l23.11,23.11l-15.4,15.42L46.44,31.3c-1.42-1.42-3.72-1.42-5.14,0c-0.35,0.35-0.63,0.78-0.81,1.24
			C32.43,53.1,42.56,76.3,63.11,84.37c8.61,3.38,18.12,3.66,26.92,0.82l28.87,28.88l-35.95,35.96l-22.87,12.79
			c-0.64,0.36-1.15,0.9-1.48,1.55l-10.28,20.56c-0.7,1.4-0.42,3.09,0.68,4.19l12.84,12.85c1.11,1.11,2.8,1.38,4.19,0.68l20.56-10.28
			c0.65-0.33,1.19-0.84,1.55-1.48l12.79-22.87l35.94-35.96l30.36,30.35c-6.82,21,4.67,43.55,25.67,50.37
			c8.8,2.86,18.33,2.57,26.95-0.81c1.87-0.73,2.79-2.84,2.06-4.71c-0.18-0.47-0.46-0.89-0.81-1.24l-23.12-23.12l15.41-15.42
			l23.13,23.11c1.42,1.42,3.72,1.42,5.14,0c0.35-0.35,0.63-0.78,0.81-1.24C248.27,174.55,244.75,157.72,233.51,146.48z
			 M95.43,163.22c-0.24,0.24-0.44,0.5-0.6,0.8l-12.47,22.34l-17.21,8.61l-9.15-9.14l8.6-17.21l22.33-12.49
			c0.29-0.16,0.56-0.36,0.8-0.6l36.3-36.32l7.71,7.71L95.43,163.22z M237.33,181.13l-21.36-21.36c-1.42-1.42-3.72-1.42-5.14,0
			l-20.55,20.56c-1.42,1.42-1.42,3.72,0,5.14l21.36,21.36c-17.72,3.52-34.94-7.98-38.47-25.7c-1.22-6.14-0.66-12.5,1.63-18.33
			c0.53-1.35,0.21-2.87-0.81-3.9L93.53,78.42c-1.02-1.02-2.55-1.34-3.89-0.81c-16.82,6.59-35.8-1.7-42.39-18.52
			c-2.28-5.83-2.85-12.18-1.63-18.32l21.36,21.36c1.42,1.42,3.72,1.42,5.14,0l20.55-20.56c1.42-1.42,1.42-3.72,0-5.14L71.31,15.07
			c17.72-3.52,34.94,7.98,38.47,25.7c1.22,6.14,0.66,12.5-1.63,18.33c-0.53,1.35-0.21,2.87,0.81,3.9l80.46,80.48
			c1.02,1.02,2.55,1.34,3.89,0.81c16.82-6.59,35.8,1.7,42.4,18.53C237.99,168.64,238.55,175,237.33,181.13L237.33,181.13z"/>
	</g>
</g>
</svg>
