<?xml version="1.0" encoding="utf-8"?>
<!-- Generator: Adobe Illustrator 23.0.3, SVG Export Plug-In . SVG Version: 6.00 Build 0)  -->
<svg version="1.1" id="圖層_1" xmlns="http://www.w3.org/2000/svg" xmlns:xlink="http://www.w3.org/1999/xlink" x="0px" y="0px"
	 viewBox="0 0 301 219" style="enable-background:new 0 0 301 219;" xml:space="preserve">
<style type="text/css">
	.st0{fill:#F5A418;}
</style>
<path id="Path_73" class="st0" d="M156.68,178.04c1.7,0,3.08-1.38,3.08-3.08v-5.4c0.05-1.7-1.29-3.12-2.98-3.17
	c-1.7-0.05-3.12,1.29-3.17,2.98c0,0.06,0,0.12,0,0.19v5.4C153.6,176.67,154.98,178.04,156.68,178.04
	C156.68,178.04,156.68,178.04,156.68,178.04z"/>
<path id="Path_74" class="st0" d="M215.5,178.04c1.7,0,3.08-1.37,3.08-3.07c0,0,0,0,0,0v-5.4c0.05-1.7-1.29-3.12-2.98-3.17
	c-1.7-0.05-3.12,1.29-3.17,2.98c0,0.06,0,0.12,0,0.19v5.4C212.42,176.67,213.8,178.04,215.5,178.04z"/>
<path id="Path_75" class="st0" d="M186.04,180.39c3.7,0.03,7.23-1.55,9.69-4.31c1.12-1.28,0.99-3.22-0.29-4.34
	c-1.28-1.12-3.22-0.99-4.34,0.29c-2.59,2.79-6.95,2.95-9.75,0.36c-0.13-0.12-0.25-0.24-0.36-0.36c-1.12-1.28-3.06-1.41-4.34-0.29
	c-1.28,1.12-1.41,3.06-0.29,4.34C178.81,178.84,182.34,180.41,186.04,180.39z"/>
<path id="Path_76" class="st0" d="M90.14,46.28l27.82,24.25c3.18,2.68,7.94,2.28,10.62-0.91c1.12-1.33,1.74-3,1.77-4.73V60.1
	c7.71,0.42,15.24,2.49,22.09,6.07c8.78,4.87,15.37,12.9,18.44,22.46c1.01,3.12,3.93,5.23,7.21,5.21c0.79,0,1.58-0.06,2.36-0.1
	c4.17-0.22,7.38-3.76,7.2-7.93v-0.06c-0.42-7.37-2.18-14.6-5.21-21.33c-5.66-12.44-15.32-22.59-29.56-31.03
	c-7.12-3.88-14.68-6.9-22.52-9v-8c-0.09-4.17-3.54-7.48-7.71-7.39c-1.72,0.04-3.37,0.66-4.69,1.76L90.14,35.01
	c-3.11,2.78-3.38,7.56-0.6,10.67C89.73,45.89,89.93,46.09,90.14,46.28z M94.19,39.66l27.82-24.25c0.56-0.48,1.4-0.41,1.87,0.15
	c0.2,0.24,0.31,0.53,0.32,0.84v10.33c0,1.43,0.99,2.67,2.38,3c0.59,0.14,1.25,0.32,1.86,0.51c7.41,1.97,14.56,4.8,21.3,8.45
	c13.11,7.78,21.98,17.03,27.1,28.28c2.71,6.03,4.3,12.51,4.67,19.12v0.04c0.03,0.77-0.57,1.41-1.33,1.45l-2.01,0.09h-0.07
	c-0.61,0.01-1.15-0.37-1.35-0.95c-3.56-11.06-11.2-20.35-21.36-25.98c-8.58-4.47-18.09-6.85-27.77-6.94
	c-1.74-0.13-3.26,1.17-3.39,2.9c0,0.06-0.01,0.11-0.01,0.17v8c-0.01,0.74-0.62,1.32-1.36,1.31c-0.31-0.01-0.6-0.12-0.83-0.31
	L94.19,41.64c-0.55-0.49-0.6-1.33-0.11-1.89c0.03-0.04,0.07-0.08,0.11-0.11V39.66z"/>
<path id="Path_77" class="st0" d="M56.57,150.05h7.33v48.41c-0.04,6.87,5.48,12.48,12.35,12.54h149.52
	c6.87-0.06,12.39-5.67,12.35-12.54v-48.41h7.33c5.1-0.13,9.13-4.37,8.99-9.47c-0.03-1.05-0.23-2.1-0.61-3.08l-15.92-40.54
	c-0.45-1.16-1.57-1.93-2.81-1.93h-16c-1.7,0.05-3.04,1.47-2.99,3.17c0.05,1.63,1.36,2.94,2.99,2.99h13.96l15.17,38.6
	c0.6,1.57-0.19,3.32-1.75,3.92c-0.32,0.12-0.66,0.19-1.01,0.2h-94.96c-1.22,0-2.31-0.75-2.76-1.89l-16.04-40.83h75.25
	c1.7,0,3.08-1.38,3.08-3.08c0-1.7-1.38-3.08-3.08-3.08l0,0H66.93c-1.25,0-2.36,0.77-2.82,1.93L48.19,137.5
	c-1.83,4.76,0.54,10.1,5.29,11.94C54.47,149.81,55.51,150.02,56.57,150.05z M127.24,182.6c1.69-0.01,3.05-1.39,3.03-3.07
	c0,0,0,0,0,0v-65.4l11.86,30.16c1.33,3.47,4.66,5.76,8.38,5.76h81.54v48.41c0.02,3.5-2.79,6.35-6.29,6.38h-95.5v-13.01
	c0-1.68-1.36-3.03-3.03-3.03s-3.03,1.36-3.03,3.03l0,0v13.01H76.25c-3.5-0.03-6.31-2.89-6.29-6.38v-48.41h34.01
	c3.71-0.03,7.03-2.31,8.38-5.77l11.86-30.16v65.4c-0.01,1.69,1.35,3.06,3.03,3.08c0,0,0,0,0,0L127.24,182.6z M53.82,139.78
	L69,101.18h53.79l-16.04,40.83c-0.44,1.14-1.54,1.89-2.76,1.89H56.57c-1.68-0.04-3-1.43-2.96-3.11c0.01-0.34,0.08-0.68,0.2-1.01
	L53.82,139.78z"/>
</svg>
