<?xml version="1.0" encoding="utf-8"?>
<!-- Generator: Adobe Illustrator 23.0.3, SVG Export Plug-In . SVG Version: 6.00 Build 0)  -->
<svg version="1.1" id="圖層_1" xmlns="http://www.w3.org/2000/svg" xmlns:xlink="http://www.w3.org/1999/xlink" x="0px" y="0px"
	 viewBox="0 0 301 219" style="enable-background:new 0 0 301 219;" xml:space="preserve">
<style type="text/css">
	.st0{fill:#F5A418;stroke:#FFFFFF;}
</style>
<g id="SG4" transform="translate(0.5 0.5)">
	<g id="Group_63" transform="translate(0 0)">
		<g id="Group_62">
			<path id="Path_78" class="st0" d="M239.06,187.95l-12.51-39.26c6.07-13.33,9.21-27.8,9.22-42.44c0.2-24.89-8.93-48.95-25.6-67.43
				c-15.79-17.82-38.3-28.25-62.1-28.79c-12.23-0.22-24.35,2.26-35.51,7.27c-10.97,4.92-20.82,12.02-28.96,20.87
				c-8.39,9.07-14.96,19.67-19.35,31.21c-4.67,12.21-6.96,25.21-6.73,38.28c0.19,24.87,9.71,48.76,26.69,66.93
				c16.07,17.47,38.68,27.47,62.42,27.59h0.14c13.74-0.05,27.26-3.46,39.37-9.94l36.42,13.49c1.36,0.51,2.8,0.77,4.26,0.77
				c3.49-0.03,6.81-1.52,9.14-4.11C239.51,198.48,240.7,192.97,239.06,187.95z M228.31,194.15c-0.55,0.65-1.45,0.87-2.24,0.56
				l-38.59-14.3c-1.41-0.52-2.98-0.39-4.28,0.36c-11.1,6.35-23.67,9.71-36.46,9.75c-42.55,0.08-77.76-37.18-78.43-83.05
				c-0.54-22.56,7.68-44.44,22.93-61.07c14.45-16.01,35.09-25.01,56.65-24.72c42.56,0.73,77.12,38.66,77.06,84.55
				c0,13.61-3.1,27.04-9.05,39.29c-0.7,1.44-0.82,3.09-0.33,4.62l13.26,41.61C229.12,192.58,228.92,193.51,228.31,194.15
				L228.31,194.15z"/>
		</g>
	</g>
	<g id="Group_65" transform="translate(29.322 49.518)">
		<g id="Group_64">
			<path id="Path_79" class="st0" d="M116.45,99.37c-3.34,0-6.05,2.71-6.05,6.05s2.71,6.05,6.05,6.05c3.34,0,6.05-2.71,6.05-6.05
				C122.46,102.1,119.78,99.41,116.45,99.37z"/>
		</g>
	</g>
	<g id="Group_67" transform="translate(20.795 16.994)">
		<g id="Group_66">
			<path id="Path_80" class="st0" d="M125.1,40.69c-16.6,0.03-30.05,13.48-30.07,30.08c0,3.34,2.71,6.05,6.05,6.05
				c3.34,0,6.05-2.71,6.05-6.05c0-9.94,8.06-17.99,17.99-17.99s17.99,8.06,17.99,17.99s-8.06,17.99-17.99,17.99
				c-3.34,0-6.04,2.71-6.05,6.05v24.68c0,3.34,2.71,6.05,6.05,6.05c3.34,0,6.05-2.71,6.05-6.05v-19.23
				c16.28-3.35,26.76-19.26,23.41-35.54c-2.88-13.98-15.18-24.02-29.46-24.03L125.1,40.69z"/>
		</g>
	</g>
</g>
</svg>
