<?xml version="1.0" encoding="utf-8"?>
<!-- Generator: Adobe Illustrator 23.0.3, SVG Export Plug-In . SVG Version: 6.00 Build 0)  -->
<svg version="1.1" id="圖層_1" xmlns="http://www.w3.org/2000/svg" xmlns:xlink="http://www.w3.org/1999/xlink" x="0px" y="0px"
	 viewBox="0 0 301 219" style="enable-background:new 0 0 301 219;" xml:space="preserve">
<style type="text/css">
	.st0{fill:#F5A418;}
</style>
<g id="Group_69">
	<g id="Group_68">
		<path id="Path_81" class="st0" d="M248.89,8H99.17c-5.03,0-9.11,4.08-9.11,9.11v41.3l-6.85-10.27c-3.13-4.73-9.44-6.15-14.29-3.22
			l-14.08,8.47c-4.61,2.71-8,7.1-9.44,12.25c-5.14,18.71-1.33,50.95,45.99,98.27c37.63,37.59,65.68,47.71,85.02,47.71
			c4.48,0.02,8.94-0.57,13.26-1.74c5.15-1.44,9.54-4.82,12.25-9.43l8.46-14.1c2.92-4.85,1.5-11.14-3.22-14.27l-33.73-22.47
			c-4.63-3.06-10.83-2.05-14.25,2.32l-9.82,12.62c-1.03,1.35-2.89,1.74-4.37,0.92l-1.87-1.03c-6.15-3.35-13.81-7.53-29.26-22.98
			c-1.67-1.67-3.19-3.24-4.61-4.74h139.65c5.02,0,9.1-4.06,9.11-9.08V17.11C258,12.08,253.92,8.01,248.89,8z M139.69,170.71l1.82,1
			c4.56,2.55,10.31,1.37,13.49-2.78l9.82-12.62c1.12-1.41,3.13-1.74,4.63-0.75l33.73,22.48c1.52,1.02,1.98,3.06,1.05,4.63
			l-8.46,14.1c-1.77,3.03-4.64,5.26-8.01,6.22c-16.89,4.63-46.45,0.72-91.32-44.16s-48.78-74.42-44.14-91.3
			c0.96-3.37,3.19-6.24,6.21-8.01l14.11-8.46c1.58-0.94,3.61-0.48,4.63,1.05l22.5,33.73c0.99,1.51,0.66,3.52-0.75,4.63l-12.63,9.82
			c-4.15,3.18-5.33,8.92-2.78,13.49l1,1.82c3.57,6.55,8.01,14.71,24.21,30.9S133.13,167.13,139.69,170.71L139.69,170.71z
			 M250.86,127.64c-0.01,1.07-0.89,1.94-1.96,1.93H102.78c-4.64-5.31-8.64-11.14-11.93-17.38l-1.03-1.88
			c-0.82-1.48-0.43-3.34,0.92-4.37l12.63-9.82c4.37-3.42,5.38-9.62,2.32-14.25l-8.49-12.75V17.11c-0.01-1.07,0.85-1.95,1.92-1.96
			c0.01,0,0.03,0,0.04,0H248.9c1.07-0.01,1.95,0.85,1.96,1.92c0,0.01,0,0.03,0,0.04L250.86,127.64L250.86,127.64z"/>
		<path id="Path_82" class="st0" d="M236.4,24.69l-60.23,45.68c-1.7,1.24-4.01,1.24-5.72,0l-60.21-45.68
			c-1.52-1.28-3.8-1.09-5.08,0.43c-1.28,1.52-1.09,3.8,0.43,5.08c0.1,0.08,0.2,0.16,0.31,0.23l60.22,45.68
			c4.28,3.17,10.13,3.17,14.42,0l60.25-45.68c1.54-1.26,1.78-3.53,0.52-5.07c-1.19-1.47-3.32-1.76-4.86-0.67H236.4z"/>
		<path id="Path_83" class="st0" d="M143.72,75.67l-36.92,39.54c-1.36,1.46-1.28,3.74,0.17,5.1c1.46,1.36,3.74,1.28,5.1-0.17l0,0
			l36.92-39.55c1.27-1.53,1.07-3.8-0.46-5.07C147.11,74.33,145.04,74.4,143.72,75.67L143.72,75.67z"/>
		<path id="Path_84" class="st0" d="M204.31,75.67c-1.36-1.46-3.64-1.53-5.1-0.17c-1.46,1.36-1.53,3.64-0.17,5.1l36.91,39.54
			c1.36,1.46,3.64,1.53,5.1,0.17c1.46-1.36,1.53-3.64,0.17-5.1l0,0L204.31,75.67z"/>
	</g>
</g>
</svg>
