<?xml version="1.0" encoding="utf-8"?>
<!-- Generator: Adobe Illustrator 23.0.3, SVG Export Plug-In . SVG Version: 6.00 Build 0)  -->
<svg version="1.1" id="圖層_1" xmlns="http://www.w3.org/2000/svg" xmlns:xlink="http://www.w3.org/1999/xlink" x="0px" y="0px"
	 viewBox="0 0 301 219" style="enable-background:new 0 0 301 219;" xml:space="preserve">
<style type="text/css">
	.st0{fill:#F5A418;}
</style>
<path id="Path_85" class="st0" d="M240.96,7.03H93.52C80.79,6.98,70.41,17.24,70.32,29.97L69.38,159.8H40.6
	c-2.05,0.08-3.65,1.79-3.59,3.84v17.87c0.05,16.56,13,30.22,29.54,31.15v0.22h124.15v-0.24c0.94,0.04,1.48,0.24,2.12,0.24h0.09
	c17.23-0.1,31.12-14.14,31.03-31.37V67.95h37.49c2.05-0.1,3.65-1.82,3.59-3.87V31.29C265.02,17.96,254.28,7.12,240.96,7.03z
	 M68.15,205.49h-0.02c-13.17-0.1-23.78-10.82-23.74-23.99v-14.32h117.23v14.26c-0.03,8.31,3.25,16.29,9.12,22.18
	c0.71,0.56,1.36,1.18,1.94,1.87L68.15,205.49z M216.54,181.49c0.09,13.16-10.49,23.9-23.65,24h-0.07
	c-13.2-0.1-23.84-10.85-23.82-24.05v-17.8c0.01-2.07-1.62-3.77-3.69-3.84H76.75L77.69,30c0.08-8.67,7.15-15.64,15.82-15.59H223.5
	c-4.38,4.58-6.87,10.64-6.99,16.97L216.54,181.49z M257.62,31.34v29.22h-33.69V31.38c0.07-9.32,7.6-16.87,16.92-16.96h0.1
	c9.26,0.09,16.71,7.65,16.67,16.91V31.34z"/>
<path id="Path_86" class="st0" d="M123.7,97.92l19.04,13.01c1.24,0.86,2.88,0.86,4.13,0l18.99-13.01
	c6.93-5.19,11.14-13.23,11.46-21.88V49.71c0.04-1.39-0.73-2.68-1.97-3.32l-28.99-14.26c-1.02-0.5-2.21-0.5-3.23,0L114.2,46.35
	c-1.24,0.63-2,1.93-1.96,3.32v26.37C112.56,84.69,116.77,92.73,123.7,97.92z M119.61,51.98l25.15-12.41L169.91,52v24.03
	c-0.31,6.21-3.32,11.97-8.25,15.77l-16.95,11.59l-16.89-11.59c-4.91-3.8-7.92-9.57-8.22-15.77L119.61,51.98z"/>
<path id="Path_87" class="st0" d="M138.52,81.61c0.69,0.7,1.63,1.1,2.62,1.11l0,0c0.98,0,1.92-0.4,2.61-1.09l14.69-14.69
	c1.44-1.44,1.44-3.78,0-5.22c-1.44-1.44-3.78-1.45-5.22,0l-12.06,12.06l-4.82-4.87c-1.44-1.45-3.78-1.46-5.23-0.02
	c-1.45,1.44-1.46,3.78-0.02,5.23L138.52,81.61z"/>
<path id="Path_88" class="st0" d="M190.69,121.49h-88.62c-2.04,0-3.69,1.65-3.69,3.69c0,2.04,1.65,3.69,3.69,3.69h88.62
	c2.04,0,3.69-1.65,3.69-3.69C194.38,123.14,192.73,121.49,190.69,121.49L190.69,121.49z"/>
<path id="Path_89" class="st0" d="M190.69,138.57h-88.62c-2.04,0-3.69,1.65-3.69,3.69c0,2.04,1.65,3.69,3.69,3.69h88.62
	c2.04,0,3.69-1.65,3.69-3.69C194.38,140.22,192.73,138.57,190.69,138.57L190.69,138.57z"/>
</svg>
